<?xml version="1.0" encoding="iso-8859-1"?>
<!-- Generator: Adobe Illustrator 19.0.0, SVG Export Plug-In . SVG Version: 6.00 Build 0)  -->
<svg version="1.1" id="Capa_1" xmlns="http://www.w3.org/2000/svg" xmlns:xlink="http://www.w3.org/1999/xlink" x="0px" y="0px"
	 viewBox="0 0 512 512" style="enable-background:new 0 0 512 512;" xml:space="preserve">
<g>
	<circle style="fill:#898998;" cx="256.018" cy="256.028" r="245.969"/>
	<g>
		<polyline style="fill:#EDF2FA;" points="163.69,27.983 255.777,84.325 255.777,169.656 178.892,225.517 89.171,205.372 
			71.295,93.637 		"/>
		<polyline style="fill:#EDF2FA;" points="11.601,283.621 89.171,205.372 178.892,225.517 208.259,315.902 152.809,401.231 
			43.722,380.291 		"/>
		<polyline style="fill:#EDF2FA;" points="339.569,24.619 256.265,84.325 256.265,169.656 333.151,225.517 422.871,205.372 
			436.426,88.849 		"/>
		<polyline style="fill:#EDF2FA;" points="500.298,284.88 422.871,205.372 333.151,225.517 303.783,315.902 359.233,401.231 
			468.039,380.794 		"/>
		<polyline style="fill:#EDF2FA;" points="303.789,497.351 359.233,401.231 303.783,315.902 208.259,315.902 152.809,401.231 
			208.259,497.351 		"/>
	</g>
</g>
<path d="M510.173,286.374c0.037-0.245,0.065-0.49,0.084-0.736c0.356-3.048,0.672-6.104,0.919-9.173
	c4.93-61.241-12.397-122.28-48.791-171.875C421.934,49.47,362.44,13.399,294.859,3.025C227.28-7.35,159.705,9.214,104.583,49.665
	C49.462,90.116,13.391,149.611,3.017,217.191C-5.99,275.867,5.322,334.532,34.93,385.052c0.021,0.038,0.044,0.075,0.065,0.113
	c4.475,7.628,9.358,15.074,14.662,22.302c36.046,49.12,88.52,83.829,147.754,97.735c2.7,0.634,5.407,1.212,8.119,1.757
	c0.565,0.16,1.142,0.267,1.728,0.327c16.171,3.132,32.523,4.708,48.833,4.708c16.423,0,32.793-1.6,48.878-4.719
	c0.477-0.057,0.948-0.145,1.41-0.269c22.363-4.468,44.154-11.913,64.717-22.289c4.93-2.488,6.91-8.501,4.421-13.431
	c-2.488-4.93-8.501-6.91-13.431-4.421c-12.385,6.25-25.081,11.307-37.949,15.225l41.461-71.879l81.174-15.247
	c-7.056,9.731-14.928,19.003-23.621,27.7c-3.904,3.906-3.903,10.237,0.003,14.14c3.906,3.905,10.236,3.902,14.14-0.002
	c15.297-15.303,28.466-32.426,39.313-50.873c0.08-0.133,0.161-0.264,0.235-0.4C494.525,355.327,505.96,321.579,510.173,286.374z
	 M491.475,261.49l-58.122-59.686l10.33-88.809c0.866,1.137,1.732,2.273,2.58,3.428C477.841,159.455,492.683,210.733,491.475,261.49z
	 M148.09,390.144l-97.984-18.809c-14.725-26.173-24.179-54.621-28.068-84.042l70.339-70.954l78.766,17.684l26.133,80.43
	L148.09,390.144z M215.524,305.903l-24.878-76.567l32.566-23.66l32.566-23.66l65.132,47.321l-24.878,76.567h-80.508V305.903z
	 M291.826,22.791c51.806,7.953,98.447,32.298,134.135,69.488l-12.2,104.891l-78.389,17.6l-69.107-50.209V89.461l15.397-11.036
	c4.488-3.217,5.519-9.464,2.302-13.952c-3.218-4.488-9.463-5.518-13.952-2.302l-14.407,10.326l-68.882-42.145
	C220.31,20.01,256.064,17.302,291.826,22.791z M116.415,65.788c14.606-10.719,30.165-19.608,46.395-26.621l82.969,50.764v74.631
	l-69.107,50.21l-78.698-17.669L81.905,96.662C92.264,85.392,103.796,75.048,116.415,65.788z M22.782,220.225
	c5.8-37.781,20.325-72.812,42.183-102.857l13.529,84.571l-58.454,58.965C19.792,247.424,20.696,233.825,22.782,220.225z
	 M65.779,395.637c-0.262-0.357-0.511-0.72-0.771-1.077l81.424,15.63l41.588,72.088C140.455,467.938,97.209,438.465,65.779,395.637z
	 M214.794,488.669l-50.263-87.127l49.155-75.642h84.669l49.155,75.643l-50.205,87.036
	C269.747,493.541,241.823,493.464,214.794,488.669z M363.969,390.168l-49.202-75.715l26.134-80.43l78.708-17.671l69.77,71.646
	c-3.949,29.212-13.267,57.732-27.841,83.843L363.969,390.168z"/>
<path d="M303.785,60.263c2.63,0,5.209-1.06,7.069-2.93c1.86-1.86,2.93-4.439,2.93-7.069c0-2.63-1.07-5.209-2.93-7.069
	c-1.86-1.86-4.439-2.93-7.069-2.93c-2.63,0-5.209,1.07-7.069,2.93c-1.86,1.86-2.93,4.439-2.93,7.069c0,2.63,1.07,5.209,2.93,7.069
	C298.576,59.204,301.156,60.263,303.785,60.263z"/>
<path d="M400.37,464.711c2.63,0,5.209-1.06,7.069-2.93c1.86-1.86,2.93-4.439,2.93-7.069s-1.07-5.209-2.93-7.069
	c-1.86-1.86-4.439-2.93-7.069-2.93c-2.63,0-5.209,1.07-7.069,2.93s-2.93,4.439-2.93,7.069s1.07,5.209,2.93,7.069
	C395.161,463.651,397.739,464.711,400.37,464.711z"/>
<g>
</g>
<g>
</g>
<g>
</g>
<g>
</g>
<g>
</g>
<g>
</g>
<g>
</g>
<g>
</g>
<g>
</g>
<g>
</g>
<g>
</g>
<g>
</g>
<g>
</g>
<g>
</g>
<g>
</g>
</svg>
